<svg xmlns="http://www.w3.org/2000/svg" width="640" height="960" viewBox="0 0 640 960"><style>.a{fill:#FFF;stroke:#000;}.b{fill:#FFF;stroke:#FFF;}</style><path d="M299 1v148H1V1H299M300 0H0v150h300V0L300 0z"/><path d="M299 811v148H1V811H299M300 810H0v150h300V810L300 810z"/><path d="M299 661v148H1V661H299M300 660H0v150h300V660L300 660z"/><path d="M299 151v148H1V151H299M300 150H0v150h300V150L300 150z"/><path d="M639 1v148H341V1H639M640 0H340v150h300V0L640 0z"/><path d="M639 811v148H341V811H639M640 810H340v150h300V810L640 810z"/><path d="M639 661v148H341V661H639M640 660H340v150h300V660L640 660z"/><path d="M639 151v148H341V151H639M640 150H340v150h300V150L640 150z"/><path d="M299 301v100.7c-24.2 6.5-44.2 24.1-53.8 47.3H1V301H299M300 300H0v150h245.8c9.4-23.3 29.5-41.1 54.2-47.5V300L300 300z"/><path d="M639 301v148H394.8c-9.6-23.2-29.7-40.8-53.8-47.3V301H639M640 300H340v102.5c24.7 6.4 44.7 24.2 54.2 47.5H640V300L640 300z"/><path d="M639 511v148H341V558.3c24.2-6.5 44.2-24.1 53.8-47.3H639M640 510H394.2c-9.4 23.3-29.5 41.1-54.2 47.5V660h300V510L640 510z"/><path d="M245.2 511c9.6 23.2 29.7 40.8 53.8 47.3V659H1V511H245.2M245.8 510H0v150h300V557.5C275.3 551.1 255.3 533.3 245.8 510L245.8 510z"/><line x1="278.7" y1="827.3" x2="298.7" y2="827.3" class="a"/><path d="M278.7 827.3c0 11.1 8.9 20 20 20" class="a"/><line x1="299.3" y1="847.3" x2="299.3" y2="827.8" class="b"/><line x1="278.7" y1="314.6" x2="298.7" y2="314.6" class="a"/><path d="M278.7 314.6c0 11.1 8.9 20 20 20" class="a"/><line x1="299.3" y1="334.6" x2="299.3" y2="315.1" class="b"/><line x1="278.7" y1="137.3" x2="298.7" y2="137.3" class="a"/><path d="M278.7 137.3c0-11.1 8.9-20 20-20" class="a"/><line x1="299.3" y1="117.3" x2="299.3" y2="136.8" class="b"/><line x1="278.7" y1="288.6" x2="298.7" y2="288.6" class="a"/><path d="M278.7 288.6c0-11.1 8.9-20 20-20" class="a"/><line x1="299.3" y1="268.6" x2="299.3" y2="288.1" class="b"/><line x1="278.7" y1="674.6" x2="298.7" y2="674.6" class="a"/><path d="M278.7 674.6c0 11.1 8.9 20 20 20" class="a"/><line x1="299.3" y1="694.6" x2="299.3" y2="675.1" class="b"/><line x1="278.7" y1="648.6" x2="298.7" y2="648.6" class="a"/><path d="M278.7 648.6c0-11.1 8.9-20 20-20" class="a"/><line x1="299.3" y1="628.6" x2="299.3" y2="648.1" class="b"/><line x1="361.3" y1="827.3" x2="341.3" y2="827.3" class="a"/><path d="M361.3 827.3c0 11.1-8.9 20-20 20" class="a"/><line x1="340.7" y1="847.3" x2="340.7" y2="827.8" class="b"/><line x1="361.3" y1="314.6" x2="341.3" y2="314.6" class="a"/><path d="M361.3 314.6c0 11.1-8.9 20-20 20" class="a"/><line x1="340.7" y1="334.6" x2="340.7" y2="315.1" class="b"/><line x1="361.3" y1="137.3" x2="341.3" y2="137.3" class="a"/><path d="M361.3 137.3c0-11.1-8.9-20-20-20" class="a"/><line x1="340.7" y1="117.3" x2="340.7" y2="136.8" class="b"/><line x1="361.3" y1="288.6" x2="341.3" y2="288.6" class="a"/><path d="M361.3 288.6c0-11.1-8.9-20-20-20" class="a"/><line x1="340.7" y1="268.6" x2="340.7" y2="288.1" class="b"/><line x1="361.3" y1="674.6" x2="341.3" y2="674.6" class="a"/><path d="M361.3 674.6c0 11.1-8.9 20-20 20" class="a"/><line x1="340.7" y1="694.6" x2="340.7" y2="675.1" class="b"/><line x1="361.3" y1="648.6" x2="341.3" y2="648.6" class="a"/><path d="M361.3 648.6c0-11.1-8.9-20-20-20" class="a"/><line x1="340.7" y1="628.6" x2="340.7" y2="648.1" class="b"/><circle cx="320" cy="480" r="52.5" style="fill:none;stroke:#000"/></svg>