<?xml version="1.0" encoding="utf-8"?>
<!-- Generator: Adobe Illustrator 15.1.0, SVG Export Plug-In . SVG Version: 6.00 Build 0)  -->
<!DOCTYPE svg PUBLIC "-//W3C//DTD SVG 1.0//EN" "http://www.w3.org/TR/2001/REC-SVG-20010904/DTD/svg10.dtd">
<svg version="1.0" id="Layer_1" xmlns="http://www.w3.org/2000/svg" xmlns:xlink="http://www.w3.org/1999/xlink" x="0px" y="0px"
	 width="640px" height="960px" viewBox="0 0 640 960" enable-background="new 0 0 640 960" xml:space="preserve">
<g>
	<path d="M299,1v148H1V1H299 M300,0H0v150h300V0L300,0z"/>
</g>
<g>
	<path d="M299,811v148H1V811H299 M300,810H0v150h300V810L300,810z"/>
</g>
<g>
	<path d="M299,661v148H1V661H299 M300,660H0v150h300V660L300,660z"/>
</g>
<g>
	<path d="M299,151v148H1V151H299 M300,150H0v150h300V150L300,150z"/>
</g>
<g>
	<path d="M639,1v148H341V1H639 M640,0H340v150h300V0L640,0z"/>
</g>
<g>
	<path d="M639,811v148H341V811H639 M640,810H340v150h300V810L640,810z"/>
</g>
<g>
	<path d="M639,661v148H341V661H639 M640,660H340v150h300V660L640,660z"/>
</g>
<g>
	<path d="M639,151v148H341V151H639 M640,150H340v150h300V150L640,150z"/>
</g>
<g>
	<path d="M299,301v100.749c-24.175,6.474-44.216,24.063-53.833,47.251H1V301H299 M300,300H0v150h245.837
		c9.428-23.283,29.481-41.127,54.163-47.479V300L300,300z"/>
</g>
<g>
	<path d="M639,301v148H394.833c-9.617-23.188-29.658-40.776-53.833-47.251V301H639 M640,300H340v102.521
		c24.681,6.353,44.734,24.196,54.162,47.479H640V300L640,300z"/>
</g>
<g>
	<path d="M639,511v148H341V558.251c24.175-6.475,44.216-24.063,53.833-47.251H639 M640,510H394.162
		c-9.428,23.283-29.481,41.127-54.162,47.479V660h300V510L640,510z"/>
</g>
<g>
	<path d="M245.167,511c9.618,23.188,29.659,40.776,53.833,47.251V659H1V511H245.167 M245.837,510H0v150h300V557.479
		C275.319,551.127,255.266,533.283,245.837,510L245.837,510z"/>
</g>
<g>
	<line fill="#FFFFFF" stroke="#000000" stroke-miterlimit="10" x1="278.667" y1="827.25" x2="298.667" y2="827.25"/>
	<path fill="#FFFFFF" stroke="#000000" stroke-miterlimit="10" d="M278.667,827.25c0,11.055,8.945,19.999,19.999,19.999"/>
	<line fill="#FFFFFF" stroke="#FFFFFF" stroke-miterlimit="10" x1="299.25" y1="847.25" x2="299.25" y2="827.75"/>
</g>
<g>
	<line fill="#FFFFFF" stroke="#000000" stroke-miterlimit="10" x1="278.667" y1="314.583" x2="298.667" y2="314.583"/>
	<path fill="#FFFFFF" stroke="#000000" stroke-miterlimit="10" d="M278.667,314.583c0,11.054,8.945,19.999,19.999,19.999"/>
	<line fill="#FFFFFF" stroke="#FFFFFF" stroke-miterlimit="10" x1="299.25" y1="334.583" x2="299.25" y2="315.083"/>
</g>
<g>
	<line fill="#FFFFFF" stroke="#000000" stroke-miterlimit="10" x1="278.667" y1="137.25" x2="298.667" y2="137.25"/>
	<path fill="#FFFFFF" stroke="#000000" stroke-miterlimit="10" d="M278.667,137.25c0-11.054,8.945-19.999,19.999-19.999"/>
	<line fill="#FFFFFF" stroke="#FFFFFF" stroke-miterlimit="10" x1="299.25" y1="117.25" x2="299.25" y2="136.75"/>
</g>
<g>
	<line fill="#FFFFFF" stroke="#000000" stroke-miterlimit="10" x1="278.667" y1="288.583" x2="298.667" y2="288.583"/>
	<path fill="#FFFFFF" stroke="#000000" stroke-miterlimit="10" d="M278.667,288.583c0-11.054,8.945-19.999,19.999-19.999"/>
	<line fill="#FFFFFF" stroke="#FFFFFF" stroke-miterlimit="10" x1="299.25" y1="268.583" x2="299.25" y2="288.083"/>
</g>
<g>
	<line fill="#FFFFFF" stroke="#000000" stroke-miterlimit="10" x1="278.667" y1="674.584" x2="298.667" y2="674.584"/>
	<path fill="#FFFFFF" stroke="#000000" stroke-miterlimit="10" d="M278.667,674.584c0,11.054,8.945,19.998,19.999,19.998"/>
	<line fill="#FFFFFF" stroke="#FFFFFF" stroke-miterlimit="10" x1="299.25" y1="694.584" x2="299.25" y2="675.084"/>
</g>
<g>
	<line fill="#FFFFFF" stroke="#000000" stroke-miterlimit="10" x1="278.667" y1="648.583" x2="298.667" y2="648.583"/>
	<path fill="#FFFFFF" stroke="#000000" stroke-miterlimit="10" d="M278.667,648.583c0-11.054,8.945-19.999,19.999-19.999"/>
	<line fill="#FFFFFF" stroke="#FFFFFF" stroke-miterlimit="10" x1="299.25" y1="628.583" x2="299.25" y2="648.083"/>
</g>
<g>
	<line fill="#FFFFFF" stroke="#000000" stroke-miterlimit="10" x1="361.251" y1="827.25" x2="341.251" y2="827.25"/>
	<path fill="#FFFFFF" stroke="#000000" stroke-miterlimit="10" d="M361.251,827.25c0,11.055-8.944,19.999-19.999,19.999"/>
	<line fill="#FFFFFF" stroke="#FFFFFF" stroke-miterlimit="10" x1="340.668" y1="847.25" x2="340.668" y2="827.75"/>
</g>
<g>
	<line fill="#FFFFFF" stroke="#000000" stroke-miterlimit="10" x1="361.251" y1="314.583" x2="341.251" y2="314.583"/>
	<path fill="#FFFFFF" stroke="#000000" stroke-miterlimit="10" d="M361.251,314.583c0,11.054-8.944,19.999-19.999,19.999"/>
	<line fill="#FFFFFF" stroke="#FFFFFF" stroke-miterlimit="10" x1="340.668" y1="334.583" x2="340.668" y2="315.083"/>
</g>
<g>
	<line fill="#FFFFFF" stroke="#000000" stroke-miterlimit="10" x1="361.251" y1="137.25" x2="341.251" y2="137.25"/>
	<path fill="#FFFFFF" stroke="#000000" stroke-miterlimit="10" d="M361.251,137.25c0-11.054-8.944-19.999-19.999-19.999"/>
	<line fill="#FFFFFF" stroke="#FFFFFF" stroke-miterlimit="10" x1="340.668" y1="117.25" x2="340.668" y2="136.75"/>
</g>
<g>
	<line fill="#FFFFFF" stroke="#000000" stroke-miterlimit="10" x1="361.251" y1="288.583" x2="341.251" y2="288.583"/>
	<path fill="#FFFFFF" stroke="#000000" stroke-miterlimit="10" d="M361.251,288.583c0-11.054-8.944-19.999-19.999-19.999"/>
	<line fill="#FFFFFF" stroke="#FFFFFF" stroke-miterlimit="10" x1="340.668" y1="268.583" x2="340.668" y2="288.083"/>
</g>
<g>
	<line fill="#FFFFFF" stroke="#000000" stroke-miterlimit="10" x1="361.251" y1="674.584" x2="341.251" y2="674.584"/>
	<path fill="#FFFFFF" stroke="#000000" stroke-miterlimit="10" d="M361.251,674.584c0,11.054-8.944,19.998-19.999,19.998"/>
	<line fill="#FFFFFF" stroke="#FFFFFF" stroke-miterlimit="10" x1="340.668" y1="694.584" x2="340.668" y2="675.084"/>
</g>
<g>
	<line fill="#FFFFFF" stroke="#000000" stroke-miterlimit="10" x1="361.251" y1="648.583" x2="341.251" y2="648.583"/>
	<path fill="#FFFFFF" stroke="#000000" stroke-miterlimit="10" d="M361.251,648.583c0-11.054-8.944-19.999-19.999-19.999"/>
	<line fill="#FFFFFF" stroke="#FFFFFF" stroke-miterlimit="10" x1="340.668" y1="628.583" x2="340.668" y2="648.083"/>
</g>
<circle fill="none" stroke="#000000" stroke-miterlimit="10" cx="320" cy="480" r="52.497"/>
</svg>
